<svg version="1.1" id="Layer_1" xmlns="http://www.w3.org/2000/svg" xmlns:xlink="http://www.w3.org/1999/xlink" x="0px" y="0px"
	 width="100%" viewBox="0 0 459 459" enable-background="new 0 0 459 459" xml:space="preserve">
<path fill="#FEFEFD" opacity="1.000000" stroke="none" 
	d="
M256.000000,460.000000 
	C170.689758,460.000000 85.879532,460.000000 1.034647,460.000000 
	C1.034647,307.064758 1.034647,154.129517 1.034647,1.097134 
	C153.893524,1.097134 306.787140,1.097134 459.840393,1.097134 
	C459.840393,153.999863 459.840393,306.999908 459.840393,460.000000 
	C392.129578,460.000000 324.314789,460.000000 256.000000,460.000000 
M330.762482,417.122742 
	C349.660553,407.585663 366.361176,394.963440 381.118774,379.929413 
	C414.321381,346.104828 434.436951,305.735931 440.551086,258.573700 
	C445.476715,220.578934 440.427704,183.891327 425.383453,148.731888 
	C412.140778,117.782829 392.329193,91.572899 366.465240,69.957382 
	C336.522614,44.933159 302.088165,29.542778 263.722382,23.557110 
	C230.167664,18.322033 197.070953,21.355686 164.759491,32.303452 
	C126.607422,45.230137 94.599586,67.117058 69.266693,98.331970 
	C33.986019,141.804413 18.153502,191.634888 22.073799,247.621643 
	C23.536007,268.503815 28.067711,288.717438 35.772526,308.125885 
	C49.818069,343.506653 71.472504,373.468628 101.719215,396.710632 
	C111.782784,404.443604 123.165703,410.459625 134.261200,417.840729 
	C139.540726,420.514832 144.820251,423.188934 150.952286,426.294861 
	C151.281387,423.481812 151.685455,421.614868 151.689789,419.746979 
	C151.736252,399.766541 151.800201,379.785339 151.650742,359.805939 
	C151.621429,355.888092 152.787109,353.471680 156.676941,352.415009 
	C158.908890,351.808716 161.009171,350.734863 163.209366,349.991760 
	C179.026901,344.649689 195.246033,341.587982 211.916443,340.161224 
	C244.563934,337.366974 276.290466,340.732117 307.115692,352.132568 
	C311.281250,353.673157 312.619202,355.968567 312.578583,360.273010 
	C312.393036,379.918793 312.483582,399.567352 312.520905,419.214813 
	C312.524506,421.106201 312.845703,422.997009 313.152100,426.331573 
	C319.447174,422.891663 324.738953,420.000000 330.762482,417.122742 
M186.726715,400.824677 
	C187.720810,403.100616 188.430206,405.559631 189.756638,407.621826 
	C196.727371,418.459076 208.223083,418.883636 216.076996,408.711212 
	C222.853867,399.933777 222.078964,384.528320 214.418655,375.742920 
	C208.216080,368.629364 197.795822,368.825134 191.750107,376.085907 
	C185.834076,383.190918 184.688751,391.266266 186.726715,400.824677 
M271.742035,413.360016 
	C282.124969,406.126770 281.886505,385.854797 275.707214,377.384308 
	C268.213898,367.112488 255.491287,366.872162 248.503082,377.485565 
	C243.595428,384.939056 242.496307,392.885895 245.037537,401.683258 
	C248.871887,414.957214 258.734711,419.793304 271.742035,413.360016 
z"/>
<path fill="#45D52E" opacity="1.000000" stroke="none" 
	d="
M133.945465,417.260529 
	C123.165703,410.459625 111.782784,404.443604 101.719215,396.710632 
	C71.472504,373.468628 49.818069,343.506653 35.772526,308.125885 
	C28.067711,288.717438 23.536007,268.503815 22.073799,247.621643 
	C18.153502,191.634888 33.986019,141.804413 69.266693,98.331970 
	C94.599586,67.117058 126.607422,45.230137 164.759491,32.303452 
	C197.070953,21.355686 230.167664,18.322033 263.722382,23.557110 
	C302.088165,29.542778 336.522614,44.933159 366.465240,69.957382 
	C392.329193,91.572899 412.140778,117.782829 425.383453,148.731888 
	C440.427704,183.891327 445.476715,220.578934 440.551086,258.573700 
	C434.436951,305.735931 414.321381,346.104828 381.118774,379.929413 
	C366.361176,394.963440 349.660553,407.585663 330.348541,416.640167 
	C329.943054,379.993805 329.952332,343.829987 329.959595,307.666199 
	C329.962524,293.167297 330.015045,278.668030 329.924438,264.169708 
	C329.901062,260.425720 330.958221,258.040070 335.148285,257.881714 
	C336.439362,257.832916 337.728668,257.272003 338.985138,256.846252 
	C353.140137,252.049835 365.062958,243.900757 374.841980,232.651306 
	C393.424774,211.274246 398.969666,186.533401 392.409546,159.311035 
	C388.768707,144.202682 380.803619,131.316483 369.226929,120.554825 
	C348.115112,100.929321 323.424286,95.026169 295.660553,100.425385 
	C291.810516,101.174103 288.791504,100.874474 286.017059,98.350639 
	C274.555054,87.923920 261.106293,81.703491 245.905624,78.987099 
	C233.919266,76.845108 221.926819,77.244148 210.374939,80.569496 
	C190.533234,86.281158 174.782623,98.070541 163.446838,115.423744 
	C161.644211,118.183266 159.615448,118.891655 156.511749,119.127800 
	C147.475266,119.815353 138.302444,120.190308 129.496765,122.119553 
	C111.977371,125.957886 98.165680,136.239319 87.102654,150.003891 
	C74.320808,165.906998 68.981728,184.308640 69.958023,204.721313 
	C70.959686,225.664673 79.479416,243.260040 93.818893,257.960449 
	C103.930664,268.326752 116.593231,274.919312 130.533539,279.059906 
	C132.003448,279.496460 133.927048,281.824066 133.931488,283.279602 
	C134.067673,327.939514 133.990021,372.600067 133.945465,417.260529 
z"/>
<path fill="#257133" opacity="1.000000" stroke="none" 
	d="
M134.103333,417.550629 
	C133.990021,372.600067 134.067673,327.939514 133.931488,283.279602 
	C133.927048,281.824066 132.003448,279.496460 130.533539,279.059906 
	C116.593231,274.919312 103.930664,268.326752 93.818893,257.960449 
	C79.479416,243.260040 70.959686,225.664673 69.958023,204.721313 
	C68.981728,184.308640 74.320808,165.906998 87.102654,150.003891 
	C98.165680,136.239319 111.977371,125.957886 129.496765,122.119553 
	C138.302444,120.190308 147.475266,119.815353 156.511749,119.127800 
	C159.615448,118.891655 161.644211,118.183266 163.446838,115.423744 
	C174.782623,98.070541 190.533234,86.281158 210.374939,80.569496 
	C221.926819,77.244148 233.919266,76.845108 245.905624,78.987099 
	C261.106293,81.703491 274.555054,87.923920 286.017059,98.350639 
	C288.791504,100.874474 291.810516,101.174103 295.660553,100.425385 
	C323.424286,95.026169 348.115112,100.929321 369.226929,120.554825 
	C380.803619,131.316483 388.768707,144.202682 392.409546,159.311035 
	C398.969666,186.533401 393.424774,211.274246 374.841980,232.651306 
	C365.062958,243.900757 353.140137,252.049835 338.985138,256.846252 
	C337.728668,257.272003 336.439362,257.832916 335.148285,257.881714 
	C330.958221,258.040070 329.901062,260.425720 329.924438,264.169708 
	C330.015045,278.668030 329.962524,293.167297 329.959595,307.666199 
	C329.952332,343.829987 329.943054,379.993805 329.982666,416.632935 
	C324.738953,420.000000 319.447174,422.891663 313.152100,426.331573 
	C312.845703,422.997009 312.524506,421.106201 312.520905,419.214813 
	C312.483582,399.567352 312.393036,379.918793 312.578583,360.273010 
	C312.619202,355.968567 311.281250,353.673157 307.115692,352.132568 
	C276.290466,340.732117 244.563934,337.366974 211.916443,340.161224 
	C195.246033,341.587982 179.026901,344.649689 163.209366,349.991760 
	C161.009171,350.734863 158.908890,351.808716 156.676941,352.415009 
	C152.787109,353.471680 151.621429,355.888092 151.650742,359.805939 
	C151.800201,379.785339 151.736252,399.766541 151.689789,419.746979 
	C151.685455,421.614868 151.281387,423.481812 150.952286,426.294861 
	C144.820251,423.188934 139.540726,420.514832 134.103333,417.550629 
M286.865875,250.230362 
	C287.052002,244.044312 290.671326,240.852844 295.823547,242.420837 
	C309.331757,246.531860 322.999023,246.033310 335.909332,241.186935 
	C372.249359,227.545334 389.872192,186.640427 372.581146,151.306229 
	C357.429047,120.342812 323.668304,107.081909 292.133057,117.810844 
	C286.688354,119.663246 283.853790,118.976799 280.298492,114.957962 
	C268.253998,101.343163 252.655533,93.770020 234.784363,93.475891 
	C207.506485,93.026955 186.667847,105.173843 173.674454,129.635773 
	C170.027023,136.502609 169.232986,137.070465 161.423599,135.880966 
	C160.769547,135.781326 160.115005,135.612396 159.492813,135.386978 
	C150.802551,132.238556 142.185043,134.752884 134.025131,136.887375 
	C119.173561,140.772263 107.003494,149.277802 97.799484,161.835709 
	C86.142555,177.740326 83.498207,195.703217 87.005249,214.398163 
	C89.606041,228.262177 96.974457,240.130112 107.947311,249.281021 
	C124.856010,263.382172 143.961655,269.181213 165.837891,263.790771 
	C170.451813,262.653870 175.116318,261.208588 179.791321,261.073242 
	C181.803696,261.014984 184.823044,263.523926 185.743225,265.595703 
	C187.083344,268.612946 185.866913,271.959930 182.497940,273.548126 
	C180.137924,274.660706 177.591660,275.516693 175.037369,276.051880 
	C168.247757,277.474518 161.353210,278.436310 154.627472,280.096313 
	C152.889313,280.525299 150.356094,282.826752 150.328003,284.308655 
	C150.021652,300.464569 150.087067,316.628876 150.197632,332.789917 
	C150.215942,335.464996 151.412979,337.141083 154.740265,336.115021 
	C162.470703,333.731171 170.291748,331.643188 178.049026,329.344025 
	C194.132401,324.577087 210.831451,323.678864 227.317307,323.332520 
	C242.469513,323.014160 257.798920,324.802094 272.831482,327.095734 
	C285.119537,328.970642 297.119415,332.831390 309.175995,336.075775 
	C313.676147,337.286774 313.992889,334.890839 313.991974,331.650299 
	C313.985870,309.490204 313.938385,287.329926 314.036530,265.170258 
	C314.054962,261.003387 312.594757,259.259796 308.239929,259.024353 
	C302.994141,258.740723 297.660248,258.032837 292.639801,256.566284 
	C290.383789,255.907257 288.795898,252.961105 286.865875,250.230362 
z"/>
<path fill="#2E7339" opacity="1.000000" stroke="none" 
	d="
M186.667084,400.425629 
	C184.688751,391.266266 185.834076,383.190918 191.750107,376.085907 
	C197.795822,368.825134 208.216080,368.629364 214.418655,375.742920 
	C222.078964,384.528320 222.853867,399.933777 216.076996,408.711212 
	C208.223083,418.883636 196.727371,418.459076 189.756638,407.621826 
	C188.430206,405.559631 187.720810,403.100616 186.667084,400.425629 
z"/>
<path fill="#94A787" opacity="1.000000" stroke="none" 
	d="
M271.466858,413.602234 
	C258.734711,419.793304 248.871887,414.957214 245.037537,401.683258 
	C242.496307,392.885895 243.595428,384.939056 248.503082,377.485565 
	C255.491287,366.872162 268.213898,367.112488 275.707214,377.384308 
	C281.886505,385.854797 282.124969,406.126770 271.466858,413.602234 
M248.562149,382.351196 
	C245.150772,391.794403 245.302063,400.917603 251.588257,409.180939 
	C256.580322,415.743103 266.188599,416.268250 271.628113,410.052521 
	C278.129395,402.623413 279.842834,394.128906 276.402069,384.513245 
	C273.982788,377.752350 269.204376,372.326294 263.652893,372.046509 
	C256.521606,371.687103 251.669785,375.171661 248.562149,382.351196 
z"/>
<path fill="#74A37D" opacity="1.000000" stroke="none" 
	d="
M286.885376,250.641571 
	C288.795898,252.961105 290.383789,255.907257 292.639801,256.566284 
	C297.660248,258.032837 302.994141,258.740723 308.239929,259.024353 
	C312.594757,259.259796 314.054962,261.003387 314.036530,265.170258 
	C313.938385,287.329926 313.985870,309.490204 313.991974,331.650299 
	C313.992889,334.890839 313.676147,337.286774 309.175995,336.075775 
	C297.119415,332.831390 285.119537,328.970642 272.831482,327.095734 
	C257.798920,324.802094 242.469513,323.014160 227.317307,323.332520 
	C210.831451,323.678864 194.132401,324.577087 178.049026,329.344025 
	C170.291748,331.643188 162.470703,333.731171 154.740265,336.115021 
	C151.412979,337.141083 150.215942,335.464996 150.197632,332.789917 
	C150.087067,316.628876 150.021652,300.464569 150.328003,284.308655 
	C150.356094,282.826752 152.889313,280.525299 154.627472,280.096313 
	C161.353210,278.436310 168.247757,277.474518 175.037369,276.051880 
	C177.591660,275.516693 180.137924,274.660706 182.497940,273.548126 
	C185.866913,271.959930 187.083344,268.612946 185.743225,265.595703 
	C184.823044,263.523926 181.803696,261.014984 179.791321,261.073242 
	C175.116318,261.208588 170.451813,262.653870 165.837891,263.790771 
	C143.961655,269.181213 124.856010,263.382172 107.947311,249.281021 
	C96.974457,240.130112 89.606041,228.262177 87.005249,214.398163 
	C83.498207,195.703217 86.142555,177.740326 97.799484,161.835709 
	C107.003494,149.277802 119.173561,140.772263 134.025131,136.887375 
	C142.185043,134.752884 150.802551,132.238556 159.492813,135.386978 
	C160.115005,135.612396 160.769547,135.781326 161.423599,135.880966 
	C169.232986,137.070465 170.027023,136.502609 173.674454,129.635773 
	C186.667847,105.173843 207.506485,93.026955 234.784363,93.475891 
	C252.655533,93.770020 268.253998,101.343163 280.298492,114.957962 
	C283.853790,118.976799 286.688354,119.663246 292.133057,117.810844 
	C323.668304,107.081909 357.429047,120.342812 372.581146,151.306229 
	C389.872192,186.640427 372.249359,227.545334 335.909332,241.186935 
	C322.999023,246.033310 309.331757,246.531860 295.823547,242.420837 
	C290.671326,240.852844 287.052002,244.044312 286.885376,250.641571 
M152.498718,324.460052 
	C152.499359,333.625732 152.499298,333.625488 161.288361,331.272003 
	C161.448761,331.229065 161.616150,331.212860 161.779388,331.179840 
	C176.553436,328.191498 191.202972,323.985199 206.126495,322.460510 
	C239.997192,319.000061 273.550842,321.286499 306.067627,332.500549 
	C310.752136,334.116089 311.985840,333.502228 311.997559,328.801208 
	C312.049042,308.142639 311.950989,287.483490 312.075653,266.825531 
	C312.100220,262.752533 310.343689,261.279236 306.527893,260.868408 
	C301.770416,260.356201 296.987274,259.660767 292.358185,258.482727 
	C286.344757,256.952362 282.844604,252.291840 283.873718,248.045776 
	C285.259949,242.326141 289.781403,239.688629 296.638000,240.714355 
	C301.398987,241.426590 306.126617,242.826889 310.893890,242.948410 
	C328.249664,243.390854 343.550201,237.775009 356.428650,226.059219 
	C377.775146,206.639877 382.405579,175.625381 370.273407,151.519318 
	C355.387787,121.942261 321.344788,107.719627 288.440887,121.428894 
	C285.496124,122.655830 283.885284,122.032394 281.979950,120.003899 
	C278.913055,116.738739 275.875366,113.405380 272.496399,110.480911 
	C253.436752,93.985115 223.785263,91.323593 202.054932,103.439987 
	C188.512207,110.991127 179.214951,121.997231 173.008011,135.888641 
	C171.753464,138.696381 170.094406,139.669510 167.166519,138.912262 
	C155.979752,136.019028 144.942001,136.175522 133.703766,139.344101 
	C117.845078,143.815399 105.504921,153.105362 97.219223,166.843796 
	C85.259804,186.673615 84.011749,207.643021 94.698082,228.634109 
	C103.672775,246.263031 118.190895,257.387268 137.258865,261.870514 
	C150.288620,264.934021 163.355286,263.445038 175.908646,258.427185 
	C180.610733,256.547668 185.641907,258.810944 187.836273,263.585541 
	C189.893356,268.061432 188.368134,273.281219 183.268875,275.007690 
	C175.012558,277.803070 166.501144,280.127014 157.915009,281.546753 
	C153.661041,282.250153 152.309158,283.183197 152.405273,287.484436 
	C152.673203,299.473816 152.497894,311.473114 152.498718,324.460052 
z"/>
<path fill="#246E32" opacity="1.000000" stroke="none" 
	d="
M248.687088,381.977051 
	C251.669785,375.171661 256.521606,371.687103 263.652893,372.046509 
	C269.204376,372.326294 273.982788,377.752350 276.402069,384.513245 
	C279.842834,394.128906 278.129395,402.623413 271.628113,410.052521 
	C266.188599,416.268250 256.580322,415.743103 251.588257,409.180939 
	C245.302063,400.917603 245.150772,391.794403 248.687088,381.977051 
z"/>
<path fill="#FDFEFD" opacity="1.000000" stroke="none" 
	d="
M152.498169,323.964264 
	C152.497894,311.473114 152.673203,299.473816 152.405273,287.484436 
	C152.309158,283.183197 153.661041,282.250153 157.915009,281.546753 
	C166.501144,280.127014 175.012558,277.803070 183.268875,275.007690 
	C188.368134,273.281219 189.893356,268.061432 187.836273,263.585541 
	C185.641907,258.810944 180.610733,256.547668 175.908646,258.427185 
	C163.355286,263.445038 150.288620,264.934021 137.258865,261.870514 
	C118.190895,257.387268 103.672775,246.263031 94.698082,228.634109 
	C84.011749,207.643021 85.259804,186.673615 97.219223,166.843796 
	C105.504921,153.105362 117.845078,143.815399 133.703766,139.344101 
	C144.942001,136.175522 155.979752,136.019028 167.166519,138.912262 
	C170.094406,139.669510 171.753464,138.696381 173.008011,135.888641 
	C179.214951,121.997231 188.512207,110.991127 202.054932,103.439987 
	C223.785263,91.323593 253.436752,93.985115 272.496399,110.480911 
	C275.875366,113.405380 278.913055,116.738739 281.979950,120.003899 
	C283.885284,122.032394 285.496124,122.655830 288.440887,121.428894 
	C321.344788,107.719627 355.387787,121.942261 370.273407,151.519318 
	C382.405579,175.625381 377.775146,206.639877 356.428650,226.059219 
	C343.550201,237.775009 328.249664,243.390854 310.893890,242.948410 
	C306.126617,242.826889 301.398987,241.426590 296.638000,240.714355 
	C289.781403,239.688629 285.259949,242.326141 283.873718,248.045776 
	C282.844604,252.291840 286.344757,256.952362 292.358185,258.482727 
	C296.987274,259.660767 301.770416,260.356201 306.527893,260.868408 
	C310.343689,261.279236 312.100220,262.752533 312.075653,266.825531 
	C311.950989,287.483490 312.049042,308.142639 311.997559,328.801208 
	C311.985840,333.502228 310.752136,334.116089 306.067627,332.500549 
	C273.550842,321.286499 239.997192,319.000061 206.126495,322.460510 
	C191.202972,323.985199 176.553436,328.191498 161.779388,331.179840 
	C161.616150,331.212860 161.448761,331.229065 161.288361,331.272003 
	C152.499298,333.625488 152.499359,333.625732 152.498169,323.964264 
z"/>
</svg>